<?xml version="1.0" encoding="utf-8"?>
<!-- Generator: Adobe Illustrator 19.0.0, SVG Export Plug-In . SVG Version: 6.00 Build 0)  -->
<svg version="1.1" id="Logos" xmlns="http://www.w3.org/2000/svg" xmlns:xlink="http://www.w3.org/1999/xlink" x="0px" y="0px"
	 width="241.4px" height="57.3px" viewBox="-93.5 516.1 241.4 57.3" style="enable-background:new -93.5 516.1 241.4 57.3;"
	 xml:space="preserve">
<g>
	<g>
		<g>
			<polygon points="-79.9,527.3 -80,527.3 -80,527.3 			"/>
			<path d="M76.7,545c-1,0-2-0.3-3-0.9l-0.5-0.3l-2.3,5.1l0.4,0.2c2,1.1,3.8,1.5,6,1.5c4.1,0,6.5-2,8.5-7.1l9.9-25.6h-0.8h-6.2
				c0,0-5.1,14.7-5.9,17c-0.9-2.3-6.5-17-6.5-17h-7.1c0,0,10.1,24.3,10.3,24.7C78.7,544.6,77.8,545,76.7,545z"/>
			<path d="M12.5,538.5l0.3-0.4l-4.1-4l-0.4,0.4c-1.9,2-3.8,2.9-5.9,2.9c-3.8,0-6.7-3.1-6.7-7.3V530c0-4,2.8-7.2,6.4-7.2
				c2.8,0,4.5,1.4,5.9,2.9l0.4,0.4l4.2-4.5l-0.3-0.4c-2.7-3-5.8-4.3-10.1-4.3c-7.3,0-13.1,5.8-13.1,13.2v0.1c0,7.3,5.7,13,13,13
				C7.6,543.3,10.4,540.9,12.5,538.5z"/>
			<path d="M27.6,543.2c7.6,0,13.5-5.8,13.5-13.1V530c0-7.3-5.9-13.1-13.4-13.1s-13.5,5.8-13.5,13.2v0.1
				C14.2,537.4,20.1,543.2,27.6,543.2z M20.8,529.9c0-4.2,2.8-7.2,6.8-7.2c3.9,0,6.9,3.1,6.9,7.3v0.1c0,3.6-2.3,7.2-6.8,7.2
				C23.8,537.3,20.8,534.1,20.8,529.9L20.8,529.9z"/>
			<path d="M-21.7,517.7v0.5V532c0,2.8-1.8,4.8-4.5,4.8c-2.6,0-4.6-2.1-4.6-4.8v-14.3h-6.9v14.4c0,6.3,5,10.4,11.4,10.4
				c2,0,3.8-0.7,5.4-1.5c0.2-0.1,0.3-0.2,0.5-0.2l0.1,1.3v0.5h5.6v-10.4v-2.5v-12H-21.7L-21.7,517.7z"/>
			<path d="M51.8,542.5V542v-13.8c0-2.8,1.8-4.8,4.5-4.8c2.6,0,4.6,2.1,4.6,4.8v14.3h6.9v-14.4c0-6.3-5-10.4-11.4-10.4
				c-2,0-3.8,0.7-5.4,1.5c-0.2,0.1-0.3,0.2-0.5,0.2l-0.1-1.3v-0.4h-5.6v10.5v2.3v12H51.8L51.8,542.5z"/>
			<path d="M-48.9,518.1v1.1c-2-1.1-4.4-2.3-7-2.3c-7.7,0-13.7,5.4-13.7,12.9v0.1c0,7.5,6,12.8,13.6,12.8c2.6,0,5-1.2,7.1-2.4v1.1
				v0.7h6.2v-24.5h-6.2V518.1z M-55.7,537.2c-4.2,0-7.5-3.3-7.5-7.4s3.4-7.4,7.5-7.4c4.2,0,7.5,3.3,7.5,7.4
				C-48.1,533.9-51.5,537.2-55.7,537.2z"/>
			<path d="M-81.7,521.2c1.7,0,4,0.8,6.9,2.4l0.2,0.1l2.6-4.7l-0.2-0.1c-2.8-1.7-6.4-2.8-9.5-2.8c-4.8,0-9.7,2.6-9.7,8.3v0.1
				c0,4.7,4.3,6.6,8.1,7.7c2.5,0.7,4.9,1.6,4.9,3.5v0.1c0,0.8-0.4,2.9-3.7,2.9c-2.3,0-5.3-1.4-8.3-3.4l-0.2-0.2l-2.9,4.5l0.2,0.1
				c3.2,2.4,7.2,4,11,4c6.5,0,10.1-3.2,10.1-8.4v-0.5c0-3.3-2.6-5.8-8-7.6l0,0l0,0l0,0l-0.7-0.2c-2.5-0.8-4.3-1.4-4.3-3.3v-0.1
				C-85.1,522.4-84,521.2-81.7,521.2z"/>
		</g>
		<path d="M147.6,546.3L147.6,546.3c-2-1.4-2-1.4-3.4-2.2c-13.3-8.1-20.2-9-26.6-6.9c-5,1.7-13.6,8.5-13.6,8.5
			c-7.9,5.3-15.8,13.9-34.5,12.9c-17.4-0.9-53.1-10.2-53.6-10.3c-0.4-0.1-0.9,0.2-0.8,0.7c0.1,0.4,1,2.3,1,2.3
			c0.1,0.3,0.3,0.3,0.4,0.4c14.3,5.7,57.7,21.7,73,21.7c18.3,0,33.4-25.4,49.7-25.4c5.1,0,6.3,0.2,7.1,0.2c0.7,0.1,1.3-0.2,1.5-0.8
			C147.9,547.3,148.1,546.8,147.6,546.3z M98.9,565.6L98.9,565.6L98.9,565.6z M100.4,562.6c-0.2,1-0.8,1.9-1.7,2.5l0,0
			c-0.9,0.6-1.9,0.8-2.9,0.6c-1-0.2-1.9-0.8-2.5-1.7c-1.2-1.8-0.7-4.2,1.1-5.4c1.8-1.2,4.2-0.7,5.4,1.1
			C100.4,560.6,100.6,561.6,100.4,562.6z M110.2,557.5c-1.8,1.2-4.2,0.7-5.4-1.1c-1.2-1.8-0.7-4.2,1.1-5.4c1.8-1.2,4.2-0.7,5.4,1.1
			c0.4,0.7,0.7,1.4,0.7,2.2C112,555.4,111.4,556.7,110.2,557.5z M123.4,547.3c-0.2,1-0.8,1.9-1.7,2.5c-0.9,0.6-1.9,0.8-2.9,0.6
			c-1-0.2-1.9-0.8-2.5-1.7c-0.6-0.9-0.8-1.9-0.6-2.9c0.2-1,0.8-1.9,1.7-2.5c0.9-0.6,1.9-0.8,2.9-0.6c1,0.2,1.9,0.8,2.5,1.7
			C123.4,545.2,123.6,546.3,123.4,547.3z"/>
	</g>
	<g>
		<path d="M102.1,518c2.6,0,4.8,2.1,4.8,4.7c0,2.7-2.2,4.8-4.8,4.8c-2.6,0-4.8-2-4.8-4.7C97.3,520,99.5,518,102.1,518z M102.1,526.8
			c2.3,0,4-1.8,4-4.1c0-2.3-1.8-4.1-4-4.1s-4,1.8-4,4.1C98.1,525.1,99.9,526.8,102.1,526.8z M100.3,520h2c1.3,0,1.9,0.5,1.9,1.6
			c0,1-0.6,1.4-1.5,1.5l1.6,2.4h-0.8l-1.5-2.4h-1v2.4h-0.8L100.3,520L100.3,520z M101.1,522.5h1c0.8,0,1.5,0,1.5-0.9
			c0-0.8-0.7-0.9-1.2-0.9h-1.2L101.1,522.5L101.1,522.5z"/>
	</g>
</g>
</svg>
